<svg xmlns="http://www.w3.org/2000/svg" viewBox="0 0 620 420" role="img" aria-labelledby="title desc"><title id="title">Monero Cat community portrait</title><desc id="desc">Original close portrait of an orange cat emerging from darkness.</desc><defs><radialGradient id="halo"><stop stop-color="#C77B34" stop-opacity=".35"/><stop offset="1" stop-color="#C77B34" stop-opacity="0"/></radialGradient><linearGradient id="fur" x1="150" y1="30" x2="430" y2="390"><stop stop-color="#EBC38B"/><stop offset=".5" stop-color="#C27736"/><stop offset="1" stop-color="#70401F"/></linearGradient><linearGradient id="fade" x1="0" y1="0" x2="0" y2="1"><stop offset=".6" stop-color="white"/><stop offset="1" stop-color="black"/></linearGradient><mask id="m"><rect width="620" height="420" fill="url(#fade)"/></mask></defs><ellipse cx="335" cy="205" rx="252" ry="205" fill="url(#halo)"/><g mask="url(#m)"><path d="M143 141 197 20l95 75c29-8 60-8 89 0l95-75 53 121c47 49 45 129 1 180-46 54-119 74-195 70-75 4-149-16-195-70-44-51-44-131 3-180Z" fill="url(#fur)" stroke="#1F150F" stroke-width="10"/><path d="m177 124 31-74 59 51Z" fill="#58301D"/><path d="m496 124-31-74-59 51Z" fill="#58301D"/><path d="M185 172c42-29 84-29 119-5-26 33-85 34-119 5Zm303 0c-42-29-84-29-119-5 26 33 85 34 119 5Z" fill="#0D0F12"/><ellipse cx="252" cy="169" rx="7" ry="17" fill="#E9AE48"/><ellipse cx="421" cy="169" rx="7" ry="17" fill="#E9AE48"/><circle cx="249" cy="163" r="3" fill="#FFF0C6"/><circle cx="418" cy="163" r="3" fill="#FFF0C6"/><path d="M262 253c19-26 126-26 145 0-9 56-40 75-72 75s-63-19-73-75Z" fill="#ECC791"/><path d="m319 246 16-8 17 8-17 15Z" fill="#372017"/><path d="M335 260v14m0 0c-11 13-26 14-40 4m40-4c11 13 26 14 40 4" fill="none" stroke="#49291B" stroke-width="5" stroke-linecap="round"/><g fill="none" stroke="#21140D" stroke-width="11" stroke-linecap="round" opacity=".7"><path d="M212 130c25 20 52 24 80 25m165-25c-25 20-52 24-80 25M176 218c39 11 74 10 104-2m222 2c-39 11-74 10-104-2"/></g><g stroke="#E9C18C" stroke-width="3" stroke-linecap="round"><path d="M276 268 91 247m186 43L80 310m314-42 186-21m-185 43 196 20"/></g></g><path d="M368 343c54 0 98 10 141 36" fill="none" stroke="#C77B34" stroke-width="2" stroke-dasharray="2 10"/><circle cx="526" cy="388" r="4" fill="#EBC38B"/></svg>